<svg id="Layer_1" data-name="Layer 1" xmlns="http://www.w3.org/2000/svg" viewBox="0 0 496 512"><defs><style>.cls-1{fill:#2a9d8f;}.cls-2{fill:#eef8ff;}</style></defs><rect class="cls-1" width="496" height="512" rx="91.61"/><path class="cls-2" d="M248,56C137.52,56,48,145.52,48,256s89.52,200,200,200,200-89.52,200-200S358.48,56,248,56ZM409.29,256a160.44,160.44,0,0,1-8.71,51.94H384.21a12.74,12.74,0,0,1-9.19-3.88l-25.81-26.29a9.6,9.6,0,0,1,.08-13.46l10.08-10.08v-7a9.16,9.16,0,0,0-2.66-6.45l-7.58-7.58a9.12,9.12,0,0,0-6.45-2.66H329.77A9.13,9.13,0,0,1,323.32,215l7.58-7.58a9.2,9.2,0,0,1,6.45-2.66h25.81a9.15,9.15,0,0,0,9.11-9.11V188a9.16,9.16,0,0,0-9.11-9.12h-29.6a13,13,0,0,0-12.9,12.91v3.63a12.93,12.93,0,0,1-8.79,12.25l-25.48,8.47a6.43,6.43,0,0,0-4.44,6.13v1.77a6.47,6.47,0,0,1-6.45,6.46H262.6a6.47,6.47,0,0,1-6.45-6.46,6.48,6.48,0,0,0-6.46-6.45h-2.5a6.56,6.56,0,0,0-5.8,3.55l-7.58,15.08a12.85,12.85,0,0,1-11.54,7.1H204.45a12.94,12.94,0,0,1-12.9-12.9V210a13,13,0,0,1,3.79-9.11l16.21-16.21a19.94,19.94,0,0,0,5.8-14.11,6.48,6.48,0,0,1,4.44-6.13l32.26-10.73a9.34,9.34,0,0,0,3.55-2.18L279.21,130a9.12,9.12,0,0,0-6.45-15.56h-16.7l-12.9,12.9v6.45a6.47,6.47,0,0,1-6.45,6.45h-12.9a6.47,6.47,0,0,1-6.46-6.45V117.61a6.49,6.49,0,0,1,2.59-5.16L243.24,95c1.53-.08,3.07-.24,4.6-.24C337,94.71,409.29,167.05,409.29,256ZM152.92,169.79a9.16,9.16,0,0,1,2.66-6.45l20.48-20.49a9.13,9.13,0,0,1,15.57,6.46v12.9a9.16,9.16,0,0,1-2.66,6.45l-7.58,7.58a9.15,9.15,0,0,1-6.45,2.66H162A9.15,9.15,0,0,1,152.92,169.79Zm103.23,247.1v-5.73a12.94,12.94,0,0,0-12.91-12.9H227c-8.71,0-21.53-4.28-28.55-9.52l-17.9-13.47a36.63,36.63,0,0,1-14.68-29.35V326.65a36.67,36.67,0,0,1,17.83-31.46l34.59-20.72a37.16,37.16,0,0,1,18.87-5.24h25.16A36.8,36.8,0,0,1,286.15,278L321,307.94h14.76A25.76,25.76,0,0,1,354,315.52l13.95,14a14.77,14.77,0,0,0,10.4,4.27h10.81a161,161,0,0,1-133,83.15Z"/></svg>