<svg id="Layer_1" data-name="Layer 1" xmlns="http://www.w3.org/2000/svg" viewBox="0 0 384 512"><defs><style>.cls-1{fill:#2a9d8f;}.cls-2{fill:#eef8ff;}</style></defs><path class="cls-1" d="M172.27,501.67C27,291,0,269.41,0,192,0,86,86,0,192,0S384,86,384,192c0,77.41-27,99-172.27,309.67a24,24,0,0,1-39.46,0Z"/><path class="cls-2" d="M192,70.92a125,125,0,1,0,125,125A125,125,0,0,0,192,70.92Zm100.81,125a100.31,100.31,0,0,1-5.45,32.46H277.13a8,8,0,0,1-5.74-2.42l-16.13-16.43a6,6,0,0,1,.05-8.42l6.3-6.3v-4.38a5.73,5.73,0,0,0-1.67-4l-4.73-4.73a5.73,5.73,0,0,0-4-1.67h-8.06a5.7,5.7,0,0,1-4-9.73l4.73-4.73a5.73,5.73,0,0,1,4-1.67H264a5.72,5.72,0,0,0,5.69-5.69v-4.74a5.72,5.72,0,0,0-5.69-5.7h-18.5a8.09,8.09,0,0,0-8.07,8.07v2.27a8.08,8.08,0,0,1-5.49,7.66L216,171a4,4,0,0,0-2.77,3.83V176a4,4,0,0,1-4,4h-8.07a4,4,0,0,1-4-4,4,4,0,0,0-4-4H191.5a4.08,4.08,0,0,0-3.63,2.22l-4.74,9.42a8,8,0,0,1-7.21,4.44H164.78a8.09,8.09,0,0,1-8.06-8.07V167.19a8.08,8.08,0,0,1,2.37-5.7l10.13-10.13a12.46,12.46,0,0,0,3.63-8.82,4.07,4.07,0,0,1,2.77-3.83l20.16-6.7a5.92,5.92,0,0,0,2.22-1.36l13.51-13.51a5.71,5.71,0,0,0-4-9.73H197L189,115.48v4a4,4,0,0,1-4,4h-8.06a4,4,0,0,1-4-4V109.43a4.06,4.06,0,0,1,1.61-3.23L189,95.26c.95-.05,1.91-.15,2.87-.15A100.93,100.93,0,0,1,292.81,195.92ZM132.57,142a5.71,5.71,0,0,1,1.67-4L147,125.2a5.71,5.71,0,0,1,9.73,4v8.06a5.72,5.72,0,0,1-1.67,4l-4.73,4.74a5.72,5.72,0,0,1-4,1.66h-8.06A5.73,5.73,0,0,1,132.57,142Zm64.52,154.43V292.9a8.09,8.09,0,0,0-8.06-8.07H178.84A34.88,34.88,0,0,1,161,278.88l-11.19-8.41a22.92,22.92,0,0,1-9.17-18.35V240.07a22.89,22.89,0,0,1,11.14-19.65l21.62-13a23.21,23.21,0,0,1,11.8-3.27h15.72a23,23,0,0,1,14.92,5.49l21.77,18.7h9.23a16.08,16.08,0,0,1,11.39,4.74l8.72,8.72a9.24,9.24,0,0,0,6.5,2.67h6.76a100.61,100.61,0,0,1-83.12,52Z"/></svg>